<?xml version="1.0" standalone="no"?>
<!DOCTYPE svg PUBLIC "-//W3C//DTD SVG 20010904//EN"
 "http://www.w3.org/TR/2001/REC-SVG-20010904/DTD/svg10.dtd">
<svg version="1.0" xmlns="http://www.w3.org/2000/svg"
 width="994.000000pt" height="994.000000pt" viewBox="0 0 994.000000 994.000000"
 preserveAspectRatio="xMidYMid meet">
<metadata>
Created by potrace 1.14, written by Peter Selinger 2001-2017
</metadata>
<g transform="translate(0.000000,994.000000) scale(0.100000,-0.100000)"
fill="#000000" stroke="none">
<path d="M4595 9930 c-157 -14 -277 -29 -445 -56 -1408 -231 -2655 -1068
-3415 -2294 -115 -186 -304 -561 -382 -760 -171 -432 -275 -854 -330 -1332
-25 -218 -25 -819 0 -1033 38 -327 100 -630 187 -920 463 -1540 1664 -2773
3195 -3280 465 -154 934 -232 1460 -242 394 -8 694 17 1060 87 1172 224 2245
888 2980 1845 590 769 932 1658 1015 2640 13 155 13 625 0 780 -99 1173 -577
2228 -1387 3065 -814 842 -1859 1351 -3050 1486 -160 18 -732 27 -888 14z
m1920 -3030 c320 -36 579 -125 815 -281 138 -92 325 -281 423 -429 218 -329
343 -752 364 -1226 6 -146 5 -152 -15 -172 l-22 -22 -1380 0 -1380 0 0 -48 c0
-123 44 -368 92 -507 130 -381 378 -577 782 -616 265 -25 511 34 681 164 132
100 233 266 285 467 34 128 4 120 451 120 l380 0 24 -24 c23 -23 23 -24 9
-102 -73 -403 -326 -770 -682 -985 -298 -181 -638 -269 -1042 -269 -354 0
-636 60 -905 190 -342 166 -580 409 -750 764 -146 304 -208 604 -208 1006 0
234 15 382 59 580 159 711 632 1204 1297 1352 202 44 516 61 722 38z m-2310
-80 l25 -23 0 -318 c0 -376 14 -344 -143 -334 -111 8 -297 -6 -416 -31 -258
-54 -457 -158 -626 -328 -137 -138 -216 -270 -279 -466 -73 -226 -71 -193 -68
-1260 4 -945 4 -956 -16 -980 l-20 -25 -406 0 c-398 0 -406 0 -426 21 l-21 21
12 932 c9 719 9 1140 0 1843 -12 856 -11 911 5 929 16 18 37 19 424 19 393 0
408 -1 425 -20 16 -18 17 -36 11 -212 -3 -106 -9 -242 -12 -303 l-6 -110 50
70 c188 265 473 459 809 551 153 41 260 53 465 51 182 -3 188 -3 213 -27z"/>
<path d="M6077 6275 c-318 -60 -541 -269 -661 -619 -27 -78 -65 -235 -66 -268
0 -17 50 -18 909 -18 l910 0 -5 38 c-41 298 -127 492 -285 650 -103 102 -202
160 -352 203 -96 28 -337 35 -450 14z"/>
</g>
</svg>
